Apocalypse Now *1979*(Redux Version)(03:16:03)
 ===============================================

Luźna ekranizacja powieści Josepha Conrada "Jądro ciemności". Przeniesiona w realia wojny w Wietnamie historia kapitana Willarda, który otrzymał misję powrotu do piekła, odnalezienia i zlikwidowania pułkownika Kurtza, który odrzucając wszelkie rozkazy dowództwa wojskowego USA zaginął w dżungli. Podróż Willarda to nie tylko misja wojskowa, to także psychologiczna wędrówka w głąb ludzkiego umysłu, ogarniętego wojną, okrucieństwem z nią związanym, zatraceniem człowieczeństwa i swych własnych ideałów. Film Francisa Forda Coppoli stanowi mocny rozrachunek z wojną w Wietnamie.

 General
 Unique ID                      : 170321401252704455731813738708035874665 (0x8022B56C54DE163CA72DC6403162AF69)
 Complete name                  : F:FilmyFilmy 3DSzablonWstawkaAPOCALYPSE_NOW_1979_REDUX_PL(Leon 345)APOCALYPSE_NOW_1979_REDUX_PL(Leon 345).mkv
 Format                         : Matroska
 Format version                 : Version 2
 File size                      : 17.9 GiB
 Duration                       : 3h 16mn
 Overall bit rate mode          : Variable
 Overall bit rate               : 13.0 Mbps
 Encoded date                   : UTC 2013-06-05 22:36:26
 Writing application            : mkvmerge v5.7.0 ('The Whirlwind') built on Jul  8 2012 20:08:51
 Writing library                : libebml v1.2.3 + libmatroska v1.3.0

 Video
 ID                             : 1
 Format                         : AVC
 Format/Info                    : Advanced Video Codec
 Format profile                 : High@L4.1
 Format settings, CABAC         : Yes
 Format settings, ReFrames      : 2 frames
 Format settings, GOP           : M=4, N=24
 Codec ID                       : V_MPEG4/ISO/AVC
 Duration                       : 3h 16mn
 Bit rate mode                  : Variable
 Nominal bit rate               : 9 583 Kbps
 Maximum bit rate               : 35.0 Mbps
 Width                          : 1 920 pixels
 Height                         : 1 080 pixels
 Display aspect ratio           : 16:9
 Frame rate mode                : Constant
 Frame rate                     : 23.976 fps
 Color space                    : YUV
 Chroma subsampling             : 4:2:0
 Bit depth                      : 8 bits
 Scan type                      : Progressive
 Bits/(Pixel*Frame)             : 0.193
 Title                          : Rip  by Leon 345 emcoding type  2 pass
 Writing library                : x264 core 132 r2309 3b1f1f7
 Default                        : Yes
 Forced                         : No

 Audio #1
 ID                             : 2
 Format                         : AC-3
 Format/Info                    : Audio Coding 3
 Mode extension                 : CM (complete main)
 Format settings, Endianness    : Big
 Codec ID                       : A_AC3
 Duration                       : 3h 16mn
 Bit rate mode                  : Constant
 Bit rate                       : 640 Kbps
 Channel(s)                     : 6 channels
 Channel positions              : Front: L C R, Side: L R, LFE
 Sampling rate                  : 48.0 KHz
 Bit depth                      : 16 bits
 Compression mode               : Lossy
 Delay relative to video        : 16ms
 Stream size                    : 898 MiB (5%)
 Title                          : AC3  5.1  Lektor  PL
 Language                       : Polish
 Default                        : Yes
 Forced                         : Yes

 Audio #2
 ID                             : 3
 Format                         : AC-3
 Format/Info                    : Audio Coding 3
 Mode extension                 : CM (complete main)
 Format settings, Endianness    : Big
 Codec ID                       : A_AC3
 Duration                       : 3h 16mn
 Bit rate mode                  : Constant
 Bit rate                       : 640 Kbps
 Channel(s)                     : 6 channels
 Channel positions              : Front: L C R, Side: L R, LFE
 Sampling rate                  : 48.0 KHz
 Bit depth                      : 16 bits
 Compression mode               : Lossy
 Stream size                    : 898 MiB (5%)
 Title                          : AC3  5.1  Orginal
 Language                       : English
 Default                        : No
 Forced                         : No

 Audio #3
 ID                             : 4
 Format                         : DTS
 Format/Info                    : Digital Theater Systems
 Format profile                 : MA / Core
 Mode                           : 16
 Format settings, Endianness    : Big
 Codec ID                       : A_DTS
 Duration                       : 3h 16mn
 Bit rate mode                  : Variable
 Bit rate                       : 2067 / 768 Kbps
 Channel(s)                     : 6 channels
 Channel positions              : Front: L C R, Side: L R, LFE
 Sampling rate                  : 48.0 KHz
 Bit depth                      : 16 bits
 Compression mode               : Lossless / Lossy
 Title                          : DTS-HD MA  5.1  Orginal
 Language                       : English
 Default                        : No
 Forced                         : No

 Text
 ID                             : 5
 Format                         : UTF-8
 Codec ID                       : S_TEXT/UTF8
 Codec ID/Info                  : UTF-8 Plain Text
 Language                       : Polish
 Default                        : No
 Forced                         : No

 Source [thx]:
 A/V- Apocalypse Now [2-in-1: Original & Redux Versions] (1979/2001) Blu-ray 1080p AVC DTS-HD 5.1
 Lektor  PL -HDBT